<svg width="170" height="128" viewBox="0 0 170 128" fill="none" xmlns="http://www.w3.org/2000/svg">
<path d="M169.286 97.7699L153.926 24.8918L103.598 35.3497C103.598 35.3497 70.5903 42.5394 66.3419 43.5199C62.0934 44.5003 60.4593 46.4611 60.4593 49.4024C60.4593 51.0364 63.0738 52.9973 66.3419 52.3437L89.872 47.4415C92.681 47.2555 94.1205 49.0756 94.1205 50.3828C94.4473 52.3437 93.4669 53.9777 91.506 54.6313L52.616 63.1283C48.6342 63.7609 46.4066 66.0696 46.4066 68.684C46.4066 71.2985 49.6747 72.6057 52.616 72.2789L82.3554 66.0696C84.6431 65.7427 86.6039 67.3768 86.9307 68.684C87.5843 70.6449 86.6397 72.61 83.9895 73.5861L69.6099 76.5274C65.6882 77.181 63.7274 79.7955 64.0542 82.0831C64.381 84.3708 67.3223 86.0048 70.2635 85.678L91.506 81.1027C94.1205 80.7759 95.7545 81.7563 96.0813 83.3903C96.4081 85.0244 96.4081 87.6388 93.4669 88.2924L44.119 98.4235C39.5437 99.4039 38.2364 101.365 38.5632 105.286C38.8901 106.92 40.1973 108.554 44.119 107.901L97.3885 97.1162C100.657 96.4626 102.426 98.695 102.617 99.0771C103.271 99.7307 103.271 102.999 101.31 103.652L62.747 111.496C57.8378 112.437 55.884 114.437 56.2108 118.032C56.5377 120.32 58.4985 121.627 62.747 120.973L169.286 97.7699Z" fill="url(#paint0_linear_23_256)"/>
<rect x="21.5435" y="52.7139" width="26.8843" height="8.59093" rx="4.29546" transform="rotate(-11 21.5435 52.7139)" fill="#FD976C"/>
<rect x="12.4187" y="70.5458" width="26.8843" height="8.59093" rx="4.29546" transform="rotate(-11 12.4187 70.5458)" fill="#FD976C"/>
<rect x="31.3737" y="84.2716" width="26.8843" height="8.59093" rx="4.29546" transform="rotate(-11 31.3737 84.2716)" fill="#FD976C"/>
<rect y="107.802" width="26.8843" height="8.59093" rx="4.29546" transform="rotate(-11 0 107.802)" fill="#FD976C"/>
<rect x="21.5692" y="119.567" width="26.8843" height="8.59093" rx="4.29546" transform="rotate(-11 21.5692 119.567)" fill="#FD976C"/>
<path d="M103.518 36.2471C102.505 32.6747 102.013 28.9557 102.074 25.3298C102.135 21.7038 102.747 18.2514 103.871 15.1949C104.995 12.1384 106.606 9.54558 108.6 7.58351C110.594 5.62144 112.928 4.33363 115.449 3.80304C117.971 3.27245 120.626 3.51084 123.242 4.50287C125.858 5.4949 128.378 7.21856 130.639 9.56281C132.9 11.9071 134.852 14.8199 136.37 18.1137C137.888 21.4074 138.937 25.0091 139.451 28.6866L135.643 28.9332C135.235 26.0123 134.401 23.1516 133.196 20.5355C131.99 17.9193 130.44 15.6058 128.644 13.7438C126.848 11.8818 124.846 10.5128 122.768 9.72485C120.69 8.93692 118.582 8.74756 116.579 9.169C114.576 9.59043 112.723 10.6133 111.139 12.1717C109.555 13.7301 108.276 15.7895 107.383 18.2172C106.49 20.6449 106.004 23.387 105.956 26.267C105.907 29.1469 106.298 32.1008 107.103 34.9383L103.518 36.2471Z" fill="#FD966D"/>
<path d="M116.005 78.0611C115.362 78.2115 114.84 78.2756 114.438 78.2534C114.035 78.2311 113.72 78.1407 113.491 77.982C113.264 77.8298 113.09 77.6274 112.969 77.375C112.853 77.1145 112.759 76.8285 112.686 76.5169C112.564 75.9976 112.438 75.4006 112.308 74.7259C112.184 74.0497 112.055 73.3233 111.921 72.5467C111.792 71.7621 111.66 70.9508 111.526 70.1127L113.339 69.8732C113.391 70.3882 113.453 70.9147 113.524 71.4527C113.6 71.9826 113.679 72.498 113.762 72.999C113.845 73.4999 113.924 73.9539 113.999 74.3609C114.074 74.7679 114.137 75.1092 114.187 75.3849C114.243 75.6526 114.28 75.8254 114.298 75.9032C114.352 76.1304 114.418 76.2964 114.497 76.4011C114.575 76.4993 114.696 76.5496 114.861 76.5521C115.026 76.5546 115.258 76.5209 115.556 76.451C115.933 76.3629 116.353 76.2406 116.816 76.0843C117.278 75.9215 117.74 75.7344 118.205 75.5231C118.669 75.3118 119.086 75.0908 119.456 74.8603L120.228 76.4462C119.813 76.6599 119.359 76.8721 118.867 77.083C118.382 77.2924 117.893 77.4823 117.399 77.6528C116.904 77.8232 116.44 77.9593 116.005 78.0611ZM123.942 76.2958C123.423 76.4173 122.949 76.4393 122.52 76.3617C122.097 76.2825 121.725 76.1265 121.404 75.8937C121.081 75.6543 120.813 75.3576 120.6 75.0035C120.387 74.6494 120.231 74.2614 120.132 73.8394C120.032 73.411 120.014 72.9976 120.078 72.5991C120.147 72.1927 120.283 71.822 120.486 71.487C120.694 71.1506 120.963 70.8652 121.292 70.6308C121.619 70.3899 121.996 70.2194 122.425 70.1191C122.873 70.0143 123.306 69.9949 123.726 70.0611C124.145 70.1272 124.53 70.2664 124.881 70.4787C125.232 70.691 125.53 70.9671 125.774 71.3072C126.024 71.6457 126.201 72.0356 126.304 72.477C126.534 73.4572 126.443 74.283 126.032 74.9544C125.619 75.6192 124.923 76.0664 123.942 76.2958ZM123.563 74.7207C124.037 74.6098 124.366 74.3924 124.551 74.0685C124.742 73.7431 124.779 73.3305 124.662 72.8307C124.557 72.3828 124.336 72.0544 124 71.8456C123.663 71.6368 123.274 71.584 122.833 71.6873C122.567 71.7496 122.34 71.878 122.153 72.0725C121.964 72.2605 121.829 72.4872 121.747 72.7528C121.671 73.0104 121.665 73.2788 121.73 73.5579C121.788 73.8045 121.893 74.0333 122.045 74.2442C122.203 74.4536 122.411 74.6071 122.666 74.7047C122.92 74.7959 123.219 74.8012 123.563 74.7207ZM130.684 74.7179C130.165 74.8394 129.691 74.8614 129.262 74.7838C128.839 74.7047 128.467 74.5487 128.146 74.3158C127.823 74.0765 127.555 73.7797 127.342 73.4256C127.129 73.0715 126.973 72.6835 126.874 72.2615C126.774 71.8331 126.756 71.4197 126.82 71.0212C126.889 70.6148 127.025 70.2441 127.227 69.9091C127.436 69.5727 127.705 69.2873 128.033 69.0529C128.36 68.812 128.738 68.6415 129.166 68.5412C129.614 68.4364 130.048 68.417 130.467 68.4832C130.887 68.5493 131.272 68.6886 131.623 68.9008C131.974 69.1131 132.271 69.3893 132.515 69.7293C132.766 70.0678 132.943 70.4578 133.046 70.8992C133.275 71.8793 133.184 72.7051 132.773 73.3765C132.361 74.0413 131.664 74.4885 130.684 74.7179ZM130.305 73.1428C130.779 73.0319 131.108 72.8145 131.292 72.4906C131.483 72.1652 131.52 71.7526 131.403 71.2528C131.298 70.8049 131.078 70.4766 130.741 70.2677C130.405 70.0589 130.016 70.0062 129.575 70.1095C129.308 70.1718 129.082 70.3001 128.894 70.4946C128.706 70.6826 128.57 70.9093 128.489 71.1749C128.412 71.4325 128.407 71.7009 128.472 71.98C128.53 72.2267 128.634 72.4554 128.787 72.6663C128.945 72.8757 129.152 73.0292 129.408 73.1269C129.662 73.218 129.961 73.2233 130.305 73.1428ZM134.589 73.7013C134.436 73.1346 134.296 72.6093 134.169 72.1255C134.048 71.6402 133.933 71.1606 133.822 70.6868C133.711 70.2129 133.603 69.7383 133.499 69.2629C133.399 68.7795 133.299 68.2621 133.197 67.7108L134.843 67.3257C134.885 67.6238 134.931 67.9245 134.982 68.2277C135.137 67.8969 135.346 67.6049 135.609 67.3518C135.87 67.0921 136.208 66.9137 136.623 66.8164C137.032 66.7207 137.383 66.7106 137.674 66.7862C137.972 66.8602 138.224 66.9998 138.43 67.2051C138.642 67.4088 138.816 67.6588 138.954 67.9552C139.097 68.2436 139.22 68.564 139.323 68.9165C139.425 69.2624 139.517 69.6139 139.601 69.971C139.692 70.3604 139.773 70.7352 139.843 71.0953C139.914 71.4553 139.971 71.7569 140.014 72.0002C140.057 72.2434 140.081 72.3885 140.085 72.4354L138.449 72.8183C138.4 72.5491 138.347 72.2637 138.29 71.9621C138.232 71.6539 138.175 71.3523 138.119 71.0571C138.062 70.7555 138.006 70.4846 137.95 70.2444C137.626 68.8618 137.24 68.2229 136.792 68.3277C136.422 68.4143 136.123 68.6556 135.894 69.0516C135.669 69.4395 135.514 69.9005 135.426 70.4344C135.442 70.4993 135.457 70.5642 135.472 70.6292C135.545 70.9407 135.621 71.2653 135.7 71.6028C135.784 71.9324 135.865 72.2489 135.943 72.5525C136.026 72.8481 136.096 73.1054 136.154 73.3246L134.589 73.7013ZM143.579 71.6689C143.093 71.7829 142.622 71.7596 142.166 71.5991C141.713 71.4451 141.32 71.1845 140.987 70.8173C140.66 70.442 140.434 69.9915 140.311 69.4657C140.196 68.9724 140.183 68.5064 140.272 68.0679C140.359 67.6229 140.525 67.2212 140.77 66.8626C141.021 66.5026 141.331 66.2008 141.698 65.9573C142.064 65.7073 142.468 65.5307 142.909 65.4274C143.279 65.3408 143.655 65.3076 144.036 65.3279C144.03 65.1855 144.021 65.0439 144.009 64.903L145.74 64.7957C145.723 64.9297 145.721 65.1253 145.734 65.3826C145.746 65.6399 145.771 65.9249 145.81 66.2376C145.856 66.5487 145.905 66.8591 145.956 67.1688C146.008 67.4784 146.063 67.7566 146.121 68.0033C146.168 68.2045 146.227 68.3994 146.299 68.5881C146.375 68.7687 146.477 68.9093 146.603 69.0099C146.728 69.1039 146.891 69.1274 147.092 69.0803L147.228 69.0484L147.381 70.7996C146.953 70.8999 146.582 70.908 146.268 70.8241C145.955 70.7466 145.686 70.6043 145.459 70.3971C145.253 70.774 144.983 71.0562 144.651 71.2436C144.32 71.4375 143.962 71.5793 143.579 71.6689ZM141.954 69.2867C142.059 69.5907 142.244 69.811 142.509 69.9476C142.779 70.0761 143.086 70.1002 143.43 70.0196C143.761 69.9422 144.016 69.79 144.196 69.563C144.374 69.3296 144.498 69.0404 144.568 68.6954C144.537 68.5931 144.509 68.4867 144.483 68.3764C144.43 68.1492 144.382 67.914 144.338 67.6708C144.295 67.4276 144.256 67.1868 144.221 66.9486C143.924 66.9085 143.626 66.9235 143.327 66.9933C142.977 67.0754 142.679 67.2205 142.433 67.4286C142.192 67.6287 142.023 67.8704 141.925 68.1535C141.827 68.4366 141.816 68.7405 141.892 69.065C141.901 69.104 141.91 69.1429 141.919 69.1819C141.928 69.2208 141.94 69.2558 141.954 69.2867Z" fill="white"/>
<defs>
<linearGradient id="paint0_linear_23_256" x1="103.901" y1="24.8918" x2="169.286" y2="96.7348" gradientUnits="userSpaceOnUse">
<stop stop-color="#FE986D"/>
<stop offset="1" stop-color="#A814A7"/>
</linearGradient>
</defs>
</svg>
