<svg width="184" height="140" viewBox="0 0 184 140" fill="none" xmlns="http://www.w3.org/2000/svg">
<path d="M184 106.268L167.305 27.0557L112.602 38.4225C112.602 38.4225 76.7257 46.2371 72.108 47.3028C67.4902 48.3684 65.7141 50.4997 65.7141 53.6966C65.7141 55.4727 68.5558 57.6039 72.108 56.8935L97.6833 51.5653C100.736 51.3631 102.301 53.3414 102.301 54.7622C102.656 56.8935 101.591 58.6696 99.4593 59.38L57.189 68.6155C52.8612 69.3031 50.44 71.8124 50.44 74.6541C50.44 77.4958 53.9921 78.9167 57.189 78.5615L89.5134 71.8124C91.9999 71.4572 94.1311 73.2333 94.4863 74.6541C95.1968 76.7854 94.17 78.9213 91.2894 79.9823L75.6601 83.1792C71.3975 83.8896 69.2663 86.7313 69.6215 89.2178C69.9767 91.7043 73.1736 93.4804 76.3705 93.1252L99.4593 88.1522C102.301 87.797 104.077 88.8626 104.432 90.6387C104.788 92.4147 104.788 95.2564 101.591 95.9669L47.9535 106.978C42.9806 108.044 41.5597 110.175 41.9149 114.438C42.2701 116.214 43.691 117.99 47.9535 117.28L105.853 105.558C109.405 104.847 111.329 107.274 111.537 107.689C112.247 108.399 112.247 111.951 110.116 112.662L68.2006 121.187C62.8647 122.21 60.7412 124.384 61.0964 128.291C61.4516 130.778 63.5829 132.199 68.2006 131.488L184 106.268Z" fill="white"/>
<rect x="23.4155" y="57.2957" width="29.221" height="9.33762" rx="4.66881" transform="rotate(-11 23.4155 57.2957)" fill="white"/>
<rect x="13.498" y="76.6775" width="29.221" height="9.33762" rx="4.66881" transform="rotate(-11 13.498 76.6775)" fill="white"/>
<rect x="34.1006" y="91.5964" width="29.221" height="9.33762" rx="4.66881" transform="rotate(-11 34.1006 91.5964)" fill="white"/>
<rect y="117.172" width="29.221" height="9.33762" rx="4.66881" transform="rotate(-11 0 117.172)" fill="white"/>
<rect x="23.4438" y="129.959" width="29.221" height="9.33762" rx="4.66881" transform="rotate(-11 23.4438 129.959)" fill="white"/>
<path d="M112.516 39.3978C111.415 35.5148 110.88 31.4726 110.946 27.5315C111.012 23.5905 111.678 19.838 112.899 16.5158C114.121 13.1936 115.872 10.3755 118.039 8.24286C120.207 6.11025 122.743 4.7105 125.484 4.13379C128.225 3.55708 131.11 3.8162 133.953 4.89446C136.797 5.97271 139.536 7.84619 141.993 10.3942C144.451 12.9422 146.573 16.1082 148.223 19.6883C149.873 23.2683 151.013 27.183 151.572 31.1802L147.433 31.4482C146.989 28.2734 146.083 25.1641 144.773 22.3205C143.462 19.477 141.777 16.9624 139.825 14.9386C137.873 12.9148 135.697 11.4267 133.439 10.5703C131.18 9.71389 128.889 9.50808 126.712 9.96614C124.535 10.4242 122.521 11.536 120.799 13.2298C119.077 14.9237 117.687 17.1621 116.716 19.8008C115.746 22.4395 115.218 25.42 115.165 28.5502C115.113 31.6805 115.537 34.8911 116.412 37.9752L112.516 39.3978Z" fill="white"/>
<path d="M126.374 85.8607C125.667 86.0261 125.093 86.0966 124.65 86.0722C124.208 86.0477 123.861 85.9482 123.609 85.7737C123.359 85.6062 123.167 85.3837 123.034 85.106C122.907 84.8194 122.803 84.5048 122.723 84.1621C122.59 83.5908 122.451 82.9342 122.307 82.192C122.171 81.4482 122.029 80.6492 121.882 79.7949C121.74 78.9318 121.595 78.0394 121.447 77.1175L123.442 76.854C123.499 77.4206 123.567 77.9997 123.645 78.5914C123.729 79.1744 123.816 79.7413 123.907 80.2924C123.999 80.8434 124.086 81.3428 124.168 81.7905C124.25 82.2382 124.319 82.6137 124.375 82.9169C124.436 83.2113 124.477 83.4014 124.497 83.4871C124.556 83.737 124.628 83.9195 124.716 84.0347C124.801 84.1427 124.935 84.1981 125.116 84.2008C125.297 84.2035 125.552 84.1665 125.881 84.0896C126.295 83.9927 126.757 83.8582 127.266 83.6862C127.774 83.5071 128.283 83.3013 128.794 83.0689C129.304 82.8364 129.763 82.5934 130.171 82.3399L131.02 84.0843C130.563 84.3193 130.064 84.5528 129.523 84.7848C128.989 85.0151 128.451 85.224 127.907 85.4115C127.364 85.599 126.853 85.7487 126.374 85.8607ZM135.105 83.9189C134.534 84.0526 134.013 84.0767 133.541 83.9913C133.076 83.9043 132.667 83.7327 132.313 83.4766C131.958 83.2133 131.663 82.8869 131.429 82.4973C131.194 82.1078 131.023 81.681 130.914 81.2169C130.804 80.7456 130.784 80.2908 130.855 79.8525C130.931 79.4054 131.08 78.9976 131.303 78.6292C131.533 78.2591 131.828 77.9452 132.19 77.6874C132.549 77.4224 132.965 77.2348 133.436 77.1245C133.929 77.0092 134.406 76.9879 134.867 77.0607C135.329 77.1334 135.752 77.2866 136.138 77.5201C136.524 77.7536 136.852 78.0574 137.12 78.4314C137.395 78.8037 137.59 79.2327 137.704 79.7182C137.956 80.7964 137.856 81.7048 137.404 82.4433C136.95 83.1746 136.184 83.6665 135.105 83.9189ZM134.689 82.1863C135.21 82.0643 135.572 81.8251 135.775 81.4689C135.985 81.1109 136.025 80.6571 135.897 80.1073C135.781 79.6146 135.539 79.2534 135.169 79.0237C134.798 78.794 134.371 78.7359 133.885 78.8496C133.592 78.9181 133.343 79.0593 133.137 79.2732C132.929 79.48 132.781 79.7294 132.691 80.0216C132.606 80.3049 132.6 80.6001 132.672 80.9072C132.736 81.1785 132.851 81.4301 133.018 81.6621C133.193 81.8924 133.42 82.0613 133.702 82.1687C133.981 82.269 134.31 82.2748 134.689 82.1863ZM142.521 82.1832C141.95 82.3169 141.428 82.341 140.957 82.2557C140.492 82.1686 140.083 81.997 139.729 81.7409C139.374 81.4776 139.079 81.1512 138.845 80.7617C138.61 80.3721 138.439 79.9453 138.33 79.4812C138.22 79.0099 138.2 78.5551 138.271 78.1168C138.347 77.6697 138.496 77.262 138.719 76.8936C138.948 76.5235 139.244 76.2095 139.605 75.9517C139.965 75.6867 140.381 75.4991 140.852 75.3888C141.345 75.2735 141.822 75.2522 142.283 75.325C142.744 75.3978 143.168 75.5509 143.554 75.7844C143.94 76.0179 144.267 76.3217 144.536 76.6957C144.811 77.0681 145.006 77.497 145.119 77.9826C145.372 79.0608 145.272 79.9691 144.819 80.7076C144.366 81.439 143.599 81.9308 142.521 82.1832ZM142.104 80.4506C142.626 80.3286 142.988 80.0895 143.191 79.7332C143.4 79.3753 143.441 78.9214 143.312 78.3716C143.197 77.8789 142.954 77.5177 142.584 77.288C142.214 77.0583 141.786 77.0003 141.301 77.1139C141.008 77.1824 140.759 77.3236 140.553 77.5375C140.345 77.7443 140.196 77.9938 140.107 78.2859C140.022 78.5693 140.016 78.8644 140.088 79.1715C140.151 79.4428 140.267 79.6945 140.434 79.9265C140.608 80.1568 140.836 80.3256 141.117 80.433C141.397 80.5333 141.726 80.5392 142.104 80.4506ZM146.817 81.0649C146.648 80.4415 146.494 79.8638 146.354 79.3316C146.222 78.7977 146.095 78.2702 145.973 77.7489C145.851 77.2277 145.732 76.7056 145.617 76.1827C145.508 75.651 145.397 75.0819 145.286 74.4754L147.096 74.0517C147.142 74.3797 147.193 74.7105 147.249 75.0439C147.42 74.6801 147.65 74.3589 147.938 74.0804C148.226 73.7948 148.598 73.5985 149.055 73.4916C149.504 73.3863 149.89 73.3752 150.21 73.4583C150.538 73.5397 150.815 73.6933 151.041 73.9191C151.275 74.1432 151.467 74.4182 151.619 74.7442C151.776 75.0614 151.911 75.4139 152.024 75.8016C152.136 76.1822 152.238 76.5688 152.33 76.9615C152.43 77.39 152.519 77.8022 152.596 78.1983C152.674 78.5943 152.737 78.9261 152.784 79.1937C152.832 79.4612 152.858 79.6208 152.862 79.6725L151.063 80.0936C151.009 79.7975 150.95 79.4835 150.888 79.1518C150.824 78.8128 150.761 78.481 150.7 78.1564C150.637 77.8246 150.575 77.5266 150.513 77.2624C150.157 75.7415 149.733 75.0387 149.24 75.154C148.833 75.2492 148.504 75.5147 148.252 75.9502C148.005 76.377 147.834 76.884 147.738 77.4714C147.755 77.5428 147.771 77.6142 147.788 77.6856C147.868 78.0283 147.952 78.3853 148.039 78.7566C148.131 79.1191 148.22 79.4673 148.306 79.8012C148.397 80.1264 148.475 80.4095 148.539 80.6506L146.817 81.0649ZM156.706 78.8293C156.171 78.9546 155.653 78.929 155.152 78.7525C154.653 78.5831 154.22 78.2964 153.855 77.8925C153.494 77.4797 153.247 76.9841 153.111 76.4058C152.984 75.8631 152.97 75.3506 153.068 74.8682C153.164 74.3787 153.347 73.9368 153.616 73.5424C153.892 73.1463 154.233 72.8144 154.637 72.5465C155.04 72.2715 155.484 72.0772 155.969 71.9636C156.376 71.8683 156.789 71.8319 157.209 71.8542C157.202 71.6976 157.192 71.5418 157.179 71.3868L159.083 71.2687C159.065 71.4161 159.062 71.6313 159.076 71.9143C159.089 72.1974 159.117 72.5109 159.16 72.8548C159.21 73.1971 159.264 73.5386 159.321 73.8792C159.378 74.2198 159.438 74.5257 159.502 74.7971C159.554 75.0184 159.619 75.2329 159.698 75.4404C159.782 75.6391 159.893 75.7938 160.032 75.9044C160.169 76.0078 160.349 76.0337 160.57 75.9818L160.72 75.9467L160.888 77.8731C160.417 77.9834 160.009 77.9923 159.663 77.9C159.319 77.8147 159.023 77.6582 158.774 77.4303C158.547 77.8449 158.251 78.1553 157.885 78.3614C157.52 78.5747 157.127 78.7307 156.706 78.8293ZM154.918 76.2089C155.034 76.5432 155.237 76.7856 155.529 76.9358C155.825 77.0772 156.163 77.1037 156.541 77.0151C156.906 76.9299 157.187 76.7624 157.384 76.5128C157.58 76.2561 157.717 75.938 157.793 75.5585C157.76 75.4459 157.728 75.3289 157.7 75.2075C157.641 74.9576 157.588 74.6989 157.541 74.4313C157.493 74.1638 157.45 73.899 157.411 73.6369C157.085 73.5929 156.757 73.6093 156.429 73.6862C156.043 73.7764 155.715 73.936 155.445 74.165C155.18 74.3851 154.994 74.6509 154.886 74.9623C154.778 75.2738 154.766 75.608 154.85 75.965C154.86 76.0079 154.87 76.0507 154.88 76.0936C154.89 76.1364 154.902 76.1748 154.918 76.2089Z" fill="#1E1E1E"/>
</svg>
