<svg width="763" height="610" viewBox="0 0 763 610" fill="none" xmlns="http://www.w3.org/2000/svg">
<path d="M142.486 141.189L193.573 302.941C201.427 327.799 205.341 340.227 212.89 349.428C219.498 357.561 228.114 363.839 237.849 367.728C248.905 372.125 261.919 372.125 287.996 372.125H385.977C412.055 372.125 425.068 372.125 436.099 367.728C445.859 363.839 454.45 357.561 461.084 349.428C468.607 340.227 472.521 327.799 480.4 302.941L490.796 270.001L496.896 250.532L505.309 223.844C508.311 214.326 509.029 204.234 507.404 194.386C505.779 184.539 501.857 175.213 495.956 167.163C490.055 159.114 482.341 152.567 473.439 148.055C464.536 143.542 454.696 141.19 444.715 141.189H142.486ZM142.486 141.189L142.206 140.249C141.133 136.654 139.946 133.094 138.648 129.574C133.502 116.549 124.776 105.246 113.478 96.9702C102.18 88.6946 88.7715 83.7846 74.8011 82.8073C72.1832 82.604 69.3111 82.604 63.5415 82.604" stroke="white" stroke-width="10" stroke-linecap="round" stroke-linejoin="round"/>
<path d="M110.4 520.6C97.2 520.6 86.7333 519.467 79 517.2C71.2667 514.933 65.5333 511.733 61.8 507.6C58.0667 503.6 55.6 498.867 54.4 493.4C53.3333 487.8 52.8 481.8 52.8 475.4C52.8 464.733 53.0667 452.533 53.6 438.8C54.2667 425.067 55.0667 410.333 56 394.6C57.0667 378.733 58.2 362.333 59.4 345.4L95.8 349C94.4667 359.267 93.2667 369.8 92.2 380.6C91.2667 391.267 90.4667 401.667 89.8 411.8C89.1333 421.933 88.6 431.133 88.2 439.4C87.8 447.667 87.4667 454.6 87.2 460.2C87.0667 465.667 87 469.2 87 470.8C87 475.467 87.5333 479 88.6 481.4C89.6667 483.667 91.8 485.2 95 486C98.2 486.8 102.867 487.2 109 487.2C116.733 487.2 125.467 486.733 135.2 485.8C144.933 484.733 154.8 483.2 164.8 481.2C174.8 479.2 183.933 476.8 192.2 474L200 508.4C190.933 510.667 181.133 512.733 170.6 514.6C160.2 516.467 149.8 517.933 139.4 519C129 520.067 119.333 520.6 110.4 520.6ZM273.016 522.4C262.349 522.4 253.016 520.667 245.016 517.2C237.149 513.733 230.616 509 225.416 503C220.216 496.867 216.349 489.867 213.816 482C211.282 474.133 210.016 465.867 210.016 457.2C210.016 448.4 211.549 440.267 214.616 432.8C217.816 425.2 222.149 418.6 227.616 413C233.216 407.4 239.749 403.067 247.216 400C254.682 396.8 262.816 395.2 271.616 395.2C280.816 395.2 289.349 396.8 297.216 400C305.082 403.2 311.949 407.667 317.816 413.4C323.682 419.133 328.216 425.867 331.416 433.6C334.749 441.333 336.416 449.733 336.416 458.8C336.416 478.933 330.882 494.6 319.816 505.8C308.749 516.867 293.149 522.4 273.016 522.4ZM272.816 490C282.549 490 289.949 487.267 295.016 481.8C300.216 476.333 302.816 468.467 302.816 458.2C302.816 449 300.016 441.6 294.416 436C288.816 430.4 281.482 427.6 272.416 427.6C266.949 427.6 261.949 429.067 257.416 432C252.882 434.8 249.216 438.6 246.416 443.4C243.749 448.067 242.416 453.267 242.416 459C242.416 464.067 243.416 469 245.416 473.8C247.549 478.6 250.882 482.533 255.416 485.6C259.949 488.533 265.749 490 272.816 490ZM411.492 522.4C400.826 522.4 391.492 520.667 383.492 517.2C375.626 513.733 369.092 509 363.892 503C358.692 496.867 354.826 489.867 352.292 482C349.759 474.133 348.492 465.867 348.492 457.2C348.492 448.4 350.026 440.267 353.092 432.8C356.292 425.2 360.626 418.6 366.092 413C371.692 407.4 378.226 403.067 385.692 400C393.159 396.8 401.292 395.2 410.092 395.2C419.292 395.2 427.826 396.8 435.692 400C443.559 403.2 450.426 407.667 456.292 413.4C462.159 419.133 466.692 425.867 469.892 433.6C473.226 441.333 474.892 449.733 474.892 458.8C474.892 478.933 469.359 494.6 458.292 505.8C447.226 516.867 431.626 522.4 411.492 522.4ZM411.292 490C421.026 490 428.426 487.267 433.492 481.8C438.692 476.333 441.292 468.467 441.292 458.2C441.292 449 438.492 441.6 432.892 436C427.292 430.4 419.959 427.6 410.892 427.6C405.426 427.6 400.426 429.067 395.892 432C391.359 434.8 387.692 438.6 384.892 443.4C382.226 448.067 380.892 453.267 380.892 459C380.892 464.067 381.892 469 383.892 473.8C386.026 478.6 389.359 482.533 393.892 485.6C398.426 488.533 404.226 490 411.292 490ZM492.169 520.4C491.769 508.667 491.435 497.8 491.169 487.8C491.035 477.8 490.969 467.933 490.969 458.2C490.969 448.467 491.035 438.733 491.169 429C491.435 419.133 491.835 408.6 492.369 397.4H526.169C525.635 403.4 525.169 409.467 524.769 415.6C529.302 409.867 534.702 405.133 540.969 401.4C547.235 397.533 554.635 395.6 563.169 395.6C571.569 395.6 578.435 397 583.769 399.8C589.235 402.6 593.502 406.467 596.569 411.4C599.769 416.333 602.035 422 603.369 428.4C604.835 434.667 605.769 441.467 606.169 448.8C606.569 456 606.769 463.267 606.769 470.6C606.769 478.6 606.635 486.267 606.369 493.6C606.102 500.933 605.835 507.067 605.569 512C605.302 516.933 605.102 519.867 604.969 520.8H571.369C571.635 515.333 571.902 509.533 572.169 503.4C572.435 497.133 572.702 491 572.969 485C573.235 478.867 573.369 473.333 573.369 468.4C573.369 440 568.769 425.8 559.569 425.8C551.969 425.8 545.035 429.133 538.769 435.8C532.635 442.333 527.502 450.6 523.369 460.6C523.369 461.933 523.369 463.267 523.369 464.6C523.369 471 523.369 477.667 523.369 484.6C523.502 491.4 523.635 497.933 523.769 504.2C524.035 510.333 524.235 515.667 524.369 520.2L492.169 520.4ZM676.511 521.8C666.511 521.8 657.444 519.2 649.311 514C641.178 508.933 634.711 502.067 629.911 493.4C625.244 484.6 622.911 474.8 622.911 464C622.911 453.867 624.778 444.733 628.511 436.6C632.244 428.333 637.311 421.267 643.711 415.4C650.244 409.533 657.644 405.067 665.911 402C674.178 398.8 682.844 397.2 691.911 397.2C699.511 397.2 706.978 398.267 714.311 400.4C714.844 397.6 715.311 394.8 715.711 392L749.911 397.8C748.978 400.333 748.044 404.133 747.111 409.2C746.178 414.267 745.378 419.933 744.711 426.2C744.178 432.467 743.711 438.733 743.311 445C742.911 451.267 742.711 456.933 742.711 462C742.711 466.133 742.978 470.2 743.511 474.2C744.178 478.067 745.511 481.267 747.511 483.8C749.511 486.2 752.578 487.4 756.711 487.4H759.511L754.511 522.2C745.711 522.2 738.444 520.667 732.711 517.6C726.978 514.667 722.378 510.667 718.911 505.6C713.178 512 706.644 516.267 699.311 518.4C691.978 520.667 684.378 521.8 676.511 521.8ZM655.711 468C656.378 474.4 658.978 479.533 663.511 483.4C668.178 487.133 674.044 489 681.111 489C687.911 489 693.578 487.2 698.111 483.6C702.644 479.867 706.378 474.8 709.311 468.4C709.178 466.267 709.111 464.067 709.111 461.8C709.111 457.133 709.244 452.333 709.511 447.4C709.778 442.467 710.111 437.6 710.511 432.8C704.911 430.667 699.044 429.6 692.911 429.6C685.711 429.6 679.244 431.067 673.511 434C667.911 436.8 663.511 440.733 660.311 445.8C657.111 450.867 655.511 456.733 655.511 463.4C655.511 464.2 655.511 465 655.511 465.8C655.511 466.6 655.578 467.333 655.711 468Z" fill="white"/>
</svg>
