<svg width="32" height="32" viewBox="0 0 32 32" fill="none" xmlns="http://www.w3.org/2000/svg">
<path d="M30.833 9.16683V22.5002C30.833 24.7103 29.955 26.8299 28.3922 28.3927C26.8294 29.9555 24.7098 30.8335 22.4997 30.8335H9.16634C6.9562 30.8335 4.83659 29.9555 3.27378 28.3927C1.71098 26.8299 0.833008 24.7103 0.833008 22.5002V9.16683C0.833008 6.95669 1.71098 4.83708 3.27378 3.27427C4.83659 1.71147 6.9562 0.833496 9.16634 0.833496H22.4997C24.7098 0.833496 26.8294 1.71147 28.3922 3.27427C29.955 4.83708 30.833 6.95669 30.833 9.16683Z" stroke="white" stroke-width="1.5" stroke-linecap="round" stroke-linejoin="round"/>
<path d="M12.4995 15.8335C11.5106 15.8335 10.5439 16.1267 9.72166 16.6761C8.89942 17.2256 8.25855 18.0064 7.88012 18.9201C7.50168 19.8337 7.40266 20.839 7.59559 21.8089C7.78851 22.7789 8.26472 23.6698 8.96398 24.369C9.66324 25.0683 10.5542 25.5445 11.5241 25.7374C12.494 25.9304 13.4993 25.8313 14.4129 25.4529C15.3266 25.0745 16.1075 24.4336 16.6569 23.6113C17.2063 22.7891 17.4995 21.8224 17.4995 20.8335V5.8335C18.0545 7.50016 20.1662 10.8335 24.1662 10.8335" stroke="white" stroke-width="1.5" stroke-linecap="round" stroke-linejoin="round"/>
</svg>
