<svg width="34" height="34" viewBox="0 0 34 34" fill="none" xmlns="http://www.w3.org/2000/svg">
<path d="M1 16.8333C1 9.37 1 5.63667 3.31833 3.31833C5.63667 1 9.36833 1 16.835 1C24.2983 1 28.03 1 30.3483 3.31833C32.6667 5.63667 32.6667 9.36833 32.6667 16.8333C32.6667 24.2967 32.6667 28.03 30.3483 30.3483C28.03 32.6667 24.2983 32.6667 16.8333 32.6667C9.37 32.6667 5.63833 32.6667 3.31833 30.3483C1.00167 28.0283 1 24.2983 1 16.8333Z" stroke="white" stroke-width="1.5" stroke-linecap="round" stroke-linejoin="round"/>
<path d="M8.5 25.1667L15.49 18.1783M15.49 18.1783L8.5 8.5H13.1283L18.1783 15.49L25.1667 8.5M15.49 18.1783L20.5367 25.1667H25.1667L18.1783 15.4883" stroke="white" stroke-width="1.5" stroke-linecap="round" stroke-linejoin="round"/>
</svg>
